<svg xmlns="http://www.w3.org/2000/svg" width="407.294" height="475.176" viewBox="0 0 407.294 475.176">
  <g id="Groupe_1" data-name="Groupe 1" transform="translate(-272.353 -25.471)">
    <rect id="Rectangle_1" data-name="Rectangle 1" width="48" height="48" transform="translate(476 263.059) rotate(45)" fill="#8aefdc"/>
    <rect id="Rectangle_2" data-name="Rectangle 2" width="48" height="48" transform="translate(476 195.177) rotate(45)" fill="#159880"/>
    <rect id="Rectangle_3" data-name="Rectangle 3" width="48" height="48" transform="translate(509.941 229.118) rotate(45)" fill="#1cc4a6"/>
    <rect id="Rectangle_4" data-name="Rectangle 4" width="48" height="48" transform="translate(442.059 229.118) rotate(45)" fill="#1cc4a6"/>
    <rect id="Rectangle_5" data-name="Rectangle 5" width="48" height="48" transform="translate(509.941 161.236) rotate(45)" fill="#8aefdc"/>
    <rect id="Rectangle_7" data-name="Rectangle 7" width="48" height="48" transform="translate(543.882 127.294) rotate(45)" fill="#1cc4a6"/>
    <rect id="Rectangle_22" data-name="Rectangle 22" width="48" height="48" transform="translate(645.706 93.353) rotate(45)" fill="#31e2c2"/>
    <rect id="Rectangle_21" data-name="Rectangle 21" width="48" height="48" transform="translate(577.823 93.353) rotate(45)" fill="#159880"/>
    <rect id="Rectangle_8" data-name="Rectangle 8" width="48" height="48" transform="translate(577.823 161.235) rotate(45)" fill="#31e2c2"/>
    <rect id="Rectangle_6" data-name="Rectangle 6" width="48" height="48" transform="translate(543.882 195.177) rotate(45)" fill="#8aefdc"/>
    <rect id="Rectangle_9" data-name="Rectangle 9" width="48" height="48" transform="translate(374.177 297) rotate(45)" fill="#093e35"/>
    <rect id="Rectangle_10" data-name="Rectangle 10" width="48" height="48" transform="translate(408.118 263.059) rotate(45)" fill="#159880"/>
    <rect id="Rectangle_11" data-name="Rectangle 11" width="48" height="48" transform="translate(442.059 297) rotate(45)" fill="#1cc4a6"/>
    <rect id="Rectangle_12" data-name="Rectangle 12" width="48" height="48" transform="translate(408.118 330.941) rotate(45)" fill="#0f6b5a"/>
    <rect id="Rectangle_29" data-name="Rectangle 29" width="48" height="48" transform="translate(374.177 364.882) rotate(45)" fill="#093e35"/>
    <rect id="Rectangle_30" data-name="Rectangle 30" width="48" height="48" transform="translate(306.294 364.882) rotate(45)" fill="#093e35"/>
    <rect id="Rectangle_13" data-name="Rectangle 13" width="48" height="48" transform="translate(509.941 297) rotate(45)" fill="#159880"/>
    <rect id="Rectangle_14" data-name="Rectangle 14" width="48" height="48" transform="translate(543.882 263.059) rotate(45)" fill="#159880"/>
    <rect id="Rectangle_15" data-name="Rectangle 15" width="48" height="48" transform="translate(577.823 297) rotate(45)" fill="#1cc4a6"/>
    <rect id="Rectangle_16" data-name="Rectangle 16" width="48" height="48" transform="translate(543.882 330.941) rotate(45)" fill="#31e2c2"/>
    <rect id="Rectangle_26" data-name="Rectangle 26" width="48" height="48" transform="translate(577.823 364.882) rotate(45)" fill="#0f6b5a"/>
    <rect id="Rectangle_27" data-name="Rectangle 27" width="48" height="48" transform="translate(645.706 364.882) rotate(45)" fill="#093e35"/>
    <rect id="Rectangle_28" data-name="Rectangle 28" width="48" height="48" transform="translate(645.706 432.765) rotate(45)" fill="#0f6b5a"/>
    <rect id="Rectangle_17" data-name="Rectangle 17" width="48" height="48" transform="translate(374.177 161.236) rotate(45)" fill="#1cc4a6"/>
    <rect id="Rectangle_18" data-name="Rectangle 18" width="48" height="48" transform="translate(408.118 127.294) rotate(45)" fill="#31e2c2"/>
    <rect id="Rectangle_23" data-name="Rectangle 23" width="48" height="48" transform="translate(374.177 93.353) rotate(45)" fill="#159880"/>
    <rect id="Rectangle_24" data-name="Rectangle 24" width="48" height="48" transform="translate(306.294 93.353) rotate(45)" fill="#31e2c2"/>
    <rect id="Rectangle_25" data-name="Rectangle 25" width="48" height="48" transform="translate(306.294 25.471) rotate(45)" fill="#8aefdc"/>
    <rect id="Rectangle_19" data-name="Rectangle 19" width="48" height="48" transform="translate(442.059 161.236) rotate(45)" fill="#1cc4a6"/>
    <rect id="Rectangle_20" data-name="Rectangle 20" width="48" height="48" transform="translate(408.118 195.177) rotate(45)" fill="#159880"/>
  </g>
</svg>
