<?xml version="1.0" standalone="no"?>
<!DOCTYPE svg PUBLIC "-//W3C//DTD SVG 20010904//EN"
 "http://www.w3.org/TR/2001/REC-SVG-20010904/DTD/svg10.dtd">
<svg version="1.0" xmlns="http://www.w3.org/2000/svg"
 width="950.000000pt" height="950.000000pt" viewBox="0 0 950.000000 950.000000"
 preserveAspectRatio="xMidYMid meet">
<metadata>
Created by potrace 1.14, written by Peter Selinger 2001-2017
</metadata>
<g transform="translate(0.000000,950.000000) scale(0.100000,-0.100000)"
fill="#000000" stroke="none">
<path d="M1024 9166 c-184 -184 -334 -339 -334 -345 0 -11 657 -671 668 -671
9 0 672 663 672 671 0 4 -151 158 -336 343 l-335 336 -335 -334z"/>
<path d="M1022 7807 c-182 -182 -332 -337 -332 -343 0 -7 592 -607 662 -670 8
-7 678 656 678 670 0 7 -665 676 -672 676 -2 0 -153 -150 -336 -333z"/>
<path d="M2388 7816 c-178 -178 -329 -330 -336 -339 -11 -13 35 -64 323 -352
296 -296 335 -338 323 -352 -7 -9 -156 -159 -330 -334 -174 -174 -318 -322
-320 -328 -2 -6 300 -315 671 -686 l675 -675 -675 -675 c-371 -372 -676 -677
-678 -680 -2 -2 153 -160 344 -351 191 -191 343 -344 337 -340 -6 4 -157 -140
-347 -330 l-337 -337 -50 49 c-27 27 -180 180 -340 339 -272 273 -290 289
-304 271 -8 -11 -14 -17 -14 -15 0 7 -178 -172 -190 -191 -6 -8 -10 -12 -10
-9 0 4 -404 -398 -447 -445 -1 -1 150 -154 337 -341 l338 -338 336 336 c185
186 339 337 343 337 3 0 148 -143 323 -318 175 -174 327 -325 337 -335 20 -17
35 -2 690 653 368 368 668 670 666 670 -2 0 15 16 36 35 21 20 181 178 355
352 174 174 316 312 316 306 0 -8 2017 -2033 2025 -2033 1 0 153 151 338 335
184 184 338 335 341 335 3 0 156 -151 340 -335 311 -312 336 -335 356 -323 11
7 20 15 20 18 0 3 144 150 320 326 l321 319 -336 335 c-184 184 -337 337 -340
339 -3 2 -149 -139 -324 -315 -175 -175 -328 -327 -339 -337 -20 -19 -24 -15
-357 318 -296 295 -335 338 -323 352 7 9 159 162 337 340 178 178 321 327 317
331 -50 55 -1332 1332 -1338 1332 -4 0 -8 5 -8 12 0 6 303 314 673 685 369
370 674 675 676 678 2 2 -148 155 -333 340 -185 185 -336 338 -336 341 0 2
151 155 335 339 184 185 335 337 335 339 0 2 -151 155 -336 340 -329 329 -337
336 -357 319 -69 -63 -667 -668 -667 -676 0 -6 -2 -8 -5 -5 -3 2 -306 -297
-675 -665 l-670 -670 -1016 1016 c-559 559 -1017 1017 -1019 1017 -2 0 -149
-146 -327 -324z"/>
<path d="M7804 7806 c-184 -184 -334 -338 -334 -342 0 -10 670 -678 675 -673
2 2 155 155 340 339 l335 335 -337 337 c-186 186 -339 338 -341 338 -2 0 -154
-150 -338 -334z"/>
<path d="M7802 1017 c-182 -182 -332 -335 -332 -339 0 -10 661 -668 672 -668
5 0 160 150 344 334 l334 335 -336 335 c-184 185 -338 336 -342 336 -4 0 -157
-150 -340 -333z"/>
</g>
</svg>
